<svg width="408" height="439" viewBox="0 0 408 439" fill="none" xmlns="http://www.w3.org/2000/svg">
<g clip-path="url(#clip0_9276_2256)">
<path d="M258.806 249.074L82.4427 294.489C76.4602 296.023 70.1138 295.12 64.7958 291.98C59.4778 288.84 55.6224 283.719 54.0756 277.74L0.738582 70.6181C-0.794766 64.6357 0.107523 58.2894 3.24751 52.9714C6.38749 47.6535 11.5087 43.7982 17.4877 42.2513L181.565 0L223.561 18.8001L275.555 220.707C277.089 226.69 276.186 233.036 273.046 238.354C269.906 243.672 264.785 247.527 258.806 249.074Z" fill="#F2F2F2"/>
<path d="M19.1599 48.7453C14.9021 49.8468 11.2552 52.5922 9.01911 56.3793C6.78306 60.1663 6.14052 64.6856 7.23246 68.9458L60.5694 276.068C61.671 280.326 64.4165 283.973 68.2035 286.209C71.9906 288.445 76.51 289.087 80.7702 287.995L257.134 242.58C261.392 241.479 265.039 238.733 267.275 234.946C269.511 231.159 270.153 226.64 269.061 222.38L217.873 23.6008L180.966 7.07886L19.1599 48.7453Z" fill="white"/>
<path d="M223.113 19.8686L195.818 26.8972C193.826 27.4103 191.711 27.1109 189.939 26.0648C188.167 25.0186 186.884 23.3115 186.371 21.3189L181.179 1.15974C181.157 1.07149 181.159 0.978612 181.187 0.891769C181.215 0.804925 181.266 0.727632 181.336 0.668749C181.405 0.609866 181.49 0.571779 181.58 0.558855C181.67 0.545932 181.762 0.558694 181.846 0.59568L223.189 18.9559C223.281 18.9968 223.358 19.0653 223.409 19.1519C223.461 19.2385 223.484 19.3389 223.475 19.4392C223.467 19.5396 223.428 19.6348 223.363 19.7117C223.298 19.7887 223.211 19.8435 223.113 19.8686Z" fill="#F2F2F2"/>
<path d="M208.754 196.746L128.458 217.423C127.964 217.55 127.451 217.579 126.947 217.507C126.442 217.436 125.957 217.266 125.518 217.007C125.08 216.748 124.696 216.405 124.39 215.998C124.084 215.591 123.861 215.127 123.734 214.634C123.607 214.141 123.578 213.627 123.65 213.123C123.721 212.619 123.891 212.133 124.15 211.695C124.409 211.256 124.752 210.873 125.159 210.566C125.566 210.26 126.03 210.037 126.523 209.91L206.819 189.233C207.312 189.106 207.826 189.078 208.33 189.149C208.834 189.221 209.32 189.391 209.759 189.65C210.197 189.909 210.581 190.251 210.887 190.659C211.193 191.066 211.416 191.529 211.543 192.023C211.67 192.516 211.698 193.029 211.627 193.534C211.556 194.038 211.386 194.523 211.127 194.962C210.868 195.401 210.525 195.784 210.118 196.09C209.71 196.396 209.247 196.619 208.754 196.746Z" fill="#CCCCCC"/>
<path d="M227.514 205.434L131.722 230.101C130.726 230.358 129.669 230.208 128.783 229.685C127.897 229.162 127.255 228.308 126.999 227.312C126.742 226.316 126.892 225.259 127.415 224.373C127.938 223.487 128.791 222.845 129.788 222.588L225.579 197.921C226.575 197.666 227.632 197.816 228.517 198.339C229.402 198.862 230.043 199.716 230.3 200.711C230.556 201.707 230.407 202.764 229.884 203.649C229.362 204.535 228.509 205.177 227.514 205.434Z" fill="#CCCCCC"/>
<path d="M95.6855 242.327C103.258 242.327 109.396 236.188 109.396 228.616C109.396 221.044 103.258 214.906 95.6855 214.906C88.1135 214.906 81.9751 221.044 81.9751 228.616C81.9751 236.188 88.1135 242.327 95.6855 242.327Z" fill="#E6E6E6"/>
<path d="M200.216 160.866L93.5748 188.316C90.4929 189.106 87.2235 188.641 84.4841 187.023C81.7446 185.405 79.7588 182.767 78.9622 179.687L56.6142 92.8712C55.8246 89.7893 56.2897 86.52 57.9075 83.7806C59.5253 81.0412 62.1637 79.0554 65.2439 78.2588L171.885 50.8081C174.967 50.0184 178.236 50.4835 180.976 52.1013C183.715 53.7191 185.701 56.3575 186.497 59.4376L208.845 146.253C209.635 149.335 209.17 152.604 207.552 155.344C205.934 158.083 203.296 160.069 200.216 160.866Z" fill="white"/>
<path d="M200.216 160.866L93.5748 188.316C90.4929 189.106 87.2235 188.641 84.4841 187.023C81.7446 185.405 79.7588 182.767 78.9622 179.687L56.6142 92.8712C55.8246 89.7893 56.2897 86.52 57.9075 83.7806C59.5253 81.0412 62.1637 79.0554 65.2439 78.2588L171.885 50.8081C174.967 50.0184 178.236 50.4835 180.976 52.1013C183.715 53.7191 185.701 56.3575 186.497 59.4376L208.845 146.253C209.635 149.335 209.17 152.604 207.552 155.344C205.934 158.083 203.296 160.069 200.216 160.866ZM65.5959 79.626C62.8781 80.3288 60.5501 82.081 59.1226 84.4982C57.6951 86.9153 57.2847 89.7999 57.9814 92.5193L80.3294 179.335C81.0323 182.053 82.7845 184.381 85.2017 185.808C87.6188 187.235 90.5035 187.646 93.2229 186.949L199.864 159.498C202.582 158.796 204.91 157.043 206.337 154.626C207.765 152.209 208.175 149.324 207.478 146.605L185.13 59.7896C184.427 57.0718 182.675 54.7438 180.258 53.3164C177.841 51.8889 174.956 51.4785 172.237 52.1752L65.5959 79.626Z" fill="#E6E6E6"/>
<path d="M166.475 79.9991L112.655 93.8531C112.184 93.9845 111.682 93.9323 111.248 93.7071C110.814 93.4819 110.483 93.1005 110.319 92.6401C110.244 92.3995 110.217 92.146 110.243 91.895C110.268 91.644 110.344 91.4009 110.467 91.1803C110.589 90.9597 110.755 90.7664 110.955 90.6121C111.154 90.4579 111.383 90.3458 111.627 90.283L166.413 76.1804C168.626 77.3018 168.045 79.5951 166.475 79.9991Z" fill="#F2F2F2"/>
<path d="M168.905 89.4393L115.085 103.293C114.614 103.425 114.111 103.372 113.678 103.147C113.244 102.922 112.912 102.541 112.749 102.08C112.673 101.84 112.647 101.586 112.672 101.335C112.698 101.084 112.774 100.841 112.896 100.62C113.019 100.4 113.185 100.207 113.384 100.052C113.584 99.898 113.813 99.786 114.057 99.7231L168.843 85.6206C171.056 86.7419 170.474 89.0353 168.905 89.4393Z" fill="#F2F2F2"/>
<path d="M104.834 111.663L88.4081 115.891C87.8717 116.029 87.3026 115.948 86.8257 115.666C86.3489 115.385 86.0032 114.926 85.8647 114.389L80.8751 95.0063C80.7375 94.4699 80.8185 93.9008 81.1001 93.424C81.3817 92.9471 81.841 92.6015 82.3771 92.4629L98.8026 88.2348C99.339 88.0975 99.908 88.1785 100.385 88.46C100.862 88.7416 101.207 89.2008 101.346 89.7368L106.336 109.12C106.473 109.656 106.392 110.225 106.111 110.702C105.829 111.179 105.37 111.525 104.834 111.663Z" fill="#E6E6E6"/>
<path d="M173.724 108.809L91.5845 129.952C91.114 130.084 90.6112 130.032 90.1776 129.806C89.7441 129.581 89.4123 129.2 89.2492 128.739C89.1733 128.499 89.1472 128.245 89.1724 127.994C89.1977 127.743 89.2739 127.5 89.3963 127.28C89.5187 127.059 89.6847 126.866 89.8843 126.711C90.0839 126.557 90.3128 126.445 90.557 126.382L173.663 104.99C175.876 106.111 175.293 108.405 173.724 108.809Z" fill="#F2F2F2"/>
<path d="M176.155 118.252L94.0152 139.395C93.5447 139.527 93.0419 139.475 92.6083 139.249C92.1748 139.024 91.8429 138.643 91.6798 138.182C91.6039 137.942 91.5778 137.688 91.6031 137.437C91.6284 137.186 91.7046 136.943 91.8269 136.723C91.9493 136.502 92.1154 136.309 92.315 136.154C92.5145 136 92.7434 135.888 92.9877 135.825L176.093 114.433C178.307 115.554 177.724 117.848 176.155 118.252Z" fill="#F2F2F2"/>
<path d="M178.584 127.689L96.4444 148.832C95.9739 148.964 95.471 148.912 95.0375 148.686C94.604 148.461 94.2721 148.08 94.109 147.619C94.0331 147.379 94.007 147.125 94.0323 146.874C94.0576 146.623 94.1338 146.38 94.2561 146.16C94.3785 145.939 94.5446 145.746 94.7442 145.592C94.9437 145.437 95.1726 145.325 95.4169 145.262L178.523 123.87C180.736 124.991 180.153 127.285 178.584 127.689Z" fill="#F2F2F2"/>
<path d="M181.015 137.131L98.8751 158.275C98.4046 158.406 97.9017 158.354 97.4682 158.129C97.0347 157.904 96.7028 157.522 96.5397 157.062C96.4638 156.821 96.4377 156.568 96.463 156.317C96.4883 156.066 96.5644 155.823 96.6868 155.602C96.8092 155.381 96.9752 155.188 97.1748 155.034C97.3744 154.88 97.6033 154.768 97.8476 154.705L180.953 133.312C183.166 134.434 182.584 136.727 181.015 137.131Z" fill="#F2F2F2"/>
<path d="M183.444 146.569L101.305 167.713C100.834 167.844 100.331 167.792 99.8979 167.567C99.4643 167.341 99.1325 166.96 98.9694 166.5C98.8935 166.259 98.8674 166.005 98.8927 165.755C98.918 165.504 98.9941 165.26 99.1165 165.04C99.2389 164.819 99.4049 164.626 99.6045 164.472C99.8041 164.317 100.033 164.205 100.277 164.142L183.383 142.75C185.596 143.871 185.014 146.165 183.444 146.569Z" fill="#F2F2F2"/>
<path d="M96.6971 233.422C96.3986 233.499 96.0829 233.478 95.7978 233.36L95.7801 233.353L92.0451 231.769C91.8718 231.696 91.7146 231.589 91.5826 231.455C91.4506 231.321 91.3463 231.162 91.2757 230.987C91.2052 230.813 91.1698 230.626 91.1714 230.438C91.1731 230.25 91.2119 230.064 91.2856 229.89C91.3592 229.717 91.4663 229.56 91.6007 229.428C91.7351 229.297 91.8941 229.193 92.0687 229.122C92.2434 229.052 92.4301 229.017 92.6184 229.019C92.8066 229.021 92.9926 229.06 93.1657 229.134L95.5859 230.163L98.7574 222.703C98.8309 222.53 98.9378 222.373 99.072 222.241C99.2061 222.11 99.3649 222.006 99.5392 221.935C99.7135 221.865 99.9 221.83 100.088 221.832C100.276 221.833 100.462 221.872 100.635 221.946L100.616 221.995L100.636 221.946C100.985 222.095 101.261 222.376 101.403 222.728C101.545 223.08 101.541 223.474 101.393 223.823L97.6616 232.595C97.5751 232.798 97.4432 232.977 97.276 233.12C97.1089 233.263 96.9111 233.366 96.6979 233.42L96.6971 233.422Z" fill="white"/>
<path d="M326.452 328.003H144.335C138.159 327.996 132.238 325.54 127.871 321.173C123.504 316.806 121.048 310.885 121.041 304.709V90.8299C121.048 84.6542 123.504 78.7333 127.871 74.3664C132.238 69.9995 138.159 67.5431 144.335 67.5361H313.765L349.746 96.2149V304.709C349.739 310.885 347.283 316.806 342.916 321.173C338.549 325.54 332.628 327.996 326.452 328.003Z" fill="#E6E6E6"/>
<path d="M144.335 74.2419C139.937 74.2469 135.721 75.9962 132.611 79.1059C129.501 82.2157 127.752 86.4321 127.747 90.8299V304.709C127.752 309.107 129.501 313.323 132.611 316.433C135.721 319.543 139.937 321.292 144.335 321.297H326.453C330.85 321.292 335.067 319.543 338.177 316.433C341.286 313.323 343.036 309.107 343.041 304.709V99.4455L311.42 74.2419H144.335Z" fill="white"/>
<path d="M291.03 136.432H208.115C207.086 136.432 206.099 136.023 205.372 135.296C204.645 134.569 204.236 133.582 204.236 132.553C204.236 131.524 204.645 130.538 205.372 129.81C206.099 129.083 207.086 128.674 208.115 128.674H291.03C292.059 128.674 293.046 129.083 293.773 129.81C294.501 130.538 294.909 131.524 294.909 132.553C294.909 133.582 294.501 134.569 293.773 135.296C293.046 136.023 292.059 136.432 291.03 136.432Z" fill="#AEC3B0"/>
<path d="M307.032 149.524H208.115C207.087 149.523 206.102 149.113 205.376 148.386C204.649 147.659 204.241 146.673 204.241 145.645C204.241 144.617 204.649 143.631 205.376 142.904C206.102 142.177 207.087 141.767 208.115 141.766H307.032C307.542 141.765 308.047 141.865 308.518 142.06C308.989 142.254 309.417 142.54 309.778 142.9C310.139 143.26 310.425 143.688 310.62 144.159C310.816 144.63 310.916 145.135 310.916 145.645C310.916 146.155 310.816 146.66 310.62 147.131C310.425 147.602 310.139 148.029 309.778 148.39C309.417 148.75 308.989 149.036 308.518 149.23C308.047 149.425 307.542 149.525 307.032 149.524Z" fill="#AEC3B0"/>
<path d="M291.031 187.342H208.118C207.089 187.342 206.103 187.751 205.375 188.478C204.648 189.206 204.239 190.192 204.239 191.221C204.239 192.25 204.648 193.236 205.375 193.964C206.103 194.691 207.089 195.1 208.118 195.1H291.031C292.06 195.1 293.046 194.691 293.774 193.964C294.501 193.236 294.91 192.25 294.91 191.221C294.91 190.192 294.501 189.206 293.774 188.478C293.046 187.751 292.06 187.342 291.031 187.342Z" fill="#CCCCCC"/>
<path d="M307.033 200.436H208.118C207.089 200.436 206.103 200.845 205.375 201.572C204.648 202.3 204.239 203.286 204.239 204.315C204.239 205.344 204.648 206.33 205.375 207.058C206.103 207.785 207.089 208.194 208.118 208.194H307.033C308.062 208.194 309.048 207.785 309.776 207.058C310.503 206.33 310.912 205.344 310.912 204.315C310.912 203.286 310.503 202.3 309.776 201.572C309.048 200.845 308.062 200.436 307.033 200.436Z" fill="#CCCCCC"/>
<path d="M291.03 253.773H208.115C207.086 253.773 206.099 253.365 205.372 252.637C204.645 251.91 204.236 250.923 204.236 249.894C204.236 248.865 204.645 247.879 205.372 247.151C206.099 246.424 207.086 246.015 208.115 246.015H291.03C292.059 246.015 293.046 246.424 293.773 247.151C294.501 247.879 294.909 248.865 294.909 249.894C294.909 250.923 294.501 251.91 293.773 252.637C293.046 253.365 292.059 253.773 291.03 253.773Z" fill="#CCCCCC"/>
<path d="M307.032 266.865H208.115C207.087 266.864 206.102 266.454 205.376 265.727C204.649 265 204.241 264.014 204.241 262.986C204.241 261.958 204.649 260.972 205.376 260.245C206.102 259.518 207.087 259.108 208.115 259.107H307.032C307.542 259.106 308.047 259.206 308.518 259.401C308.989 259.595 309.417 259.881 309.778 260.241C310.139 260.601 310.425 261.029 310.62 261.5C310.816 261.971 310.916 262.476 310.916 262.986C310.916 263.496 310.816 264.001 310.62 264.472C310.425 264.943 310.139 265.37 309.778 265.731C309.417 266.091 308.989 266.377 308.518 266.571C308.047 266.766 307.542 266.866 307.032 266.865Z" fill="#CCCCCC"/>
<path d="M173.587 152.809C181.159 152.809 187.297 146.671 187.297 139.099C187.297 131.527 181.159 125.389 173.587 125.389C166.015 125.389 159.876 131.527 159.876 139.099C159.876 146.671 166.015 152.809 173.587 152.809Z" fill="#AEC3B0"/>
<path d="M172.228 144.329C171.92 144.33 171.62 144.23 171.373 144.045L171.358 144.033L168.135 141.569C167.986 141.454 167.86 141.312 167.766 141.149C167.671 140.986 167.61 140.806 167.585 140.619C167.56 140.433 167.572 140.243 167.621 140.061C167.669 139.879 167.753 139.709 167.868 139.559C167.982 139.41 168.125 139.284 168.288 139.19C168.451 139.096 168.631 139.035 168.818 139.011C169.005 138.986 169.195 138.999 169.376 139.048C169.558 139.097 169.729 139.181 169.878 139.296L171.965 140.896L176.897 134.462C177.011 134.313 177.154 134.188 177.316 134.094C177.479 134 177.659 133.939 177.845 133.914C178.031 133.89 178.221 133.902 178.402 133.95C178.584 133.999 178.754 134.083 178.903 134.197L178.873 134.24L178.905 134.198C179.206 134.429 179.402 134.77 179.452 135.146C179.502 135.523 179.4 135.903 179.169 136.205L173.369 143.769C173.234 143.943 173.062 144.084 172.864 144.181C172.667 144.278 172.45 144.328 172.23 144.327L172.228 144.329Z" fill="white"/>
<path d="M188.707 197.768C188.708 199.569 188.353 201.352 187.665 203.016C186.976 204.68 185.967 206.192 184.694 207.465C183.421 208.739 181.909 209.749 180.246 210.439C178.582 211.128 176.799 211.483 174.999 211.483C174.881 211.486 174.763 211.481 174.646 211.469C171.95 211.4 169.334 210.537 167.126 208.989C164.918 207.441 163.216 205.276 162.232 202.765C161.249 200.254 161.027 197.509 161.596 194.873C162.165 192.237 163.498 189.827 165.43 187.945C167.361 186.063 169.805 184.793 172.454 184.293C175.104 183.792 177.843 184.085 180.327 185.133C182.812 186.182 184.932 187.94 186.423 190.187C187.913 192.434 188.708 195.071 188.707 197.768Z" fill="#CCCCCC"/>
<path d="M173.587 270.15C181.159 270.15 187.297 264.012 187.297 256.44C187.297 248.868 181.159 242.73 173.587 242.73C166.015 242.73 159.876 248.868 159.876 256.44C159.876 264.012 166.015 270.15 173.587 270.15Z" fill="#CCCCCC"/>
<path d="M349.046 97.138H320.861C318.803 97.138 316.83 96.3206 315.375 94.8657C313.92 93.4108 313.103 91.4374 313.103 89.3799V68.563C313.103 68.4719 313.128 68.3826 313.177 68.3054C313.225 68.2282 313.294 68.1662 313.376 68.1265C313.458 68.0868 313.55 68.0711 313.641 68.081C313.731 68.091 313.817 68.1263 313.889 68.1829L349.347 96.273C349.426 96.3355 349.483 96.421 349.511 96.5177C349.54 96.6144 349.537 96.7174 349.504 96.8125C349.471 96.9076 349.409 96.99 349.327 97.0483C349.245 97.1066 349.147 97.138 349.046 97.138Z" fill="#CCCCCC"/>
<path d="M188.707 197.768C188.707 199.569 188.353 201.352 187.665 203.016C186.976 204.68 185.966 206.192 184.694 207.465C183.421 208.739 181.909 209.749 180.246 210.439C178.582 211.128 176.799 211.483 174.998 211.483C174.881 211.486 174.763 211.481 174.645 211.469C172.874 207.051 172.191 202.272 172.655 197.535C173.118 192.798 174.713 188.242 177.307 184.251C180.496 184.797 183.389 186.454 185.475 188.928C187.561 191.401 188.706 194.532 188.707 197.768Z" fill="#AEC3B0"/>
<path d="M204.236 191.225C204.238 190.195 204.647 189.209 205.375 188.481C206.103 187.754 207.089 187.344 208.118 187.342H228.779C229.986 189.797 230.844 192.408 231.327 195.1H208.118C207.09 195.1 206.104 194.691 205.376 193.965C204.648 193.238 204.238 192.253 204.236 191.225Z" fill="#AEC3B0"/>
<path d="M231.808 200.436C231.809 203.056 231.462 205.665 230.777 208.194H208.118C207.089 208.194 206.103 207.785 205.375 207.058C204.648 206.33 204.239 205.344 204.239 204.315C204.239 203.286 204.648 202.3 205.375 201.572C206.103 200.845 207.089 200.436 208.118 200.436H231.808Z" fill="#AEC3B0"/>
<path d="M282.929 248.279C282.344 249.238 281.402 249.925 280.31 250.189C279.219 250.454 278.066 250.274 277.108 249.689L227.692 219.548C227.218 219.258 226.804 218.878 226.477 218.429C226.149 217.979 225.913 217.47 225.782 216.929C225.651 216.389 225.628 215.828 225.713 215.278C225.799 214.729 225.993 214.202 226.282 213.727C226.572 213.252 226.952 212.839 227.401 212.511C227.851 212.183 228.36 211.947 228.901 211.816C229.441 211.685 230.002 211.662 230.552 211.748C231.101 211.834 231.629 212.027 232.103 212.317L281.518 242.458C282.477 243.042 283.165 243.984 283.429 245.076C283.694 246.168 283.514 247.32 282.929 248.279Z" fill="#3F3D56"/>
<path d="M233.514 218.138C230.024 223.859 224.916 228.416 218.837 231.234C212.757 234.052 205.978 235.004 199.357 233.97C192.736 232.935 186.57 229.96 181.64 225.422C176.71 220.883 173.236 214.985 171.658 208.472C170.08 201.959 170.469 195.125 172.776 188.833C175.082 182.541 179.202 177.074 184.616 173.124C190.029 169.174 196.492 166.918 203.188 166.641C209.883 166.364 216.511 168.079 222.232 171.569C229.895 176.255 235.387 183.79 237.502 192.52C239.617 201.251 238.183 210.463 233.514 218.138ZM182.893 187.262C180.276 191.552 178.99 196.523 179.198 201.544C179.406 206.566 181.098 211.413 184.06 215.473C187.023 219.533 191.123 222.623 195.842 224.353C200.561 226.083 205.686 226.375 210.571 225.191C215.456 224.008 219.88 221.403 223.284 217.705C226.688 214.007 228.919 209.383 229.695 204.418C230.471 199.452 229.757 194.368 227.643 189.808C225.53 185.248 222.111 181.417 217.821 178.8C212.065 175.298 205.155 174.222 198.607 175.809C192.059 177.395 186.408 181.514 182.893 187.262Z" fill="#3F3D56"/>
<path d="M342.072 205.927C351.647 205.927 359.409 198.165 359.409 188.59C359.409 179.015 351.647 171.253 342.072 171.253C332.497 171.253 324.735 179.015 324.735 188.59C324.735 198.165 332.497 205.927 342.072 205.927Z" fill="#A0616A"/>
<path d="M340.952 285.782C340.617 284.741 340.507 283.64 340.627 282.552C340.748 281.465 341.097 280.415 341.652 279.472C342.207 278.529 342.954 277.714 343.846 277.08C344.738 276.446 345.753 276.007 346.826 275.793C347.166 275.727 347.51 275.685 347.856 275.666L366.119 246.356L349.437 230.498C348.8 229.892 348.289 229.165 347.933 228.361C347.578 227.556 347.386 226.689 347.368 225.81C347.349 224.931 347.505 224.057 347.827 223.238C348.148 222.42 348.629 221.673 349.241 221.041C349.852 220.409 350.583 219.905 351.391 219.557C352.199 219.209 353.067 219.025 353.947 219.015C354.826 219.004 355.699 219.168 356.514 219.497C357.33 219.826 358.072 220.314 358.699 220.931L381.731 243.642L381.777 243.698C382.49 244.782 382.834 246.067 382.758 247.362C382.683 248.657 382.192 249.893 381.358 250.887L355.77 281.15C355.846 281.393 355.91 281.639 355.96 281.888C356.174 282.961 356.159 284.067 355.916 285.134C355.672 286.201 355.206 287.204 354.548 288.078C353.89 288.953 353.055 289.678 352.097 290.207C351.139 290.735 350.08 291.056 348.99 291.147C348.769 291.166 348.55 291.176 348.332 291.176C346.69 291.169 345.093 290.644 343.767 289.675C342.442 288.707 341.457 287.344 340.952 285.782Z" fill="#A0616A"/>
<path d="M313.518 429.877L304.864 429.876L300.747 396.497L313.519 396.498L313.518 429.877Z" fill="#A0616A"/>
<path d="M315.725 438.265L287.821 438.264V437.911C287.821 436.485 288.102 435.073 288.647 433.755C289.193 432.438 289.993 431.24 291.002 430.232C292.01 429.223 293.208 428.423 294.525 427.877C295.843 427.332 297.256 427.051 298.682 427.051L315.725 427.052L315.725 438.265Z" fill="#01161E"/>
<path d="M399.533 417.912L392.098 422.339L371.482 395.766L382.457 389.231L399.533 417.912Z" fill="#A0616A"/>
<path d="M405.721 423.99L381.745 438.265L381.565 437.962C380.835 436.737 380.354 435.379 380.149 433.968C379.943 432.557 380.018 431.118 380.369 429.736C380.719 428.353 381.339 427.054 382.192 425.91C383.045 424.767 384.115 423.803 385.34 423.074L399.984 414.355L405.721 423.99Z" fill="#01161E"/>
<path d="M299.656 415.177C293.858 346.915 290.409 283.5 311.602 257.631L311.766 257.43L347.431 271.697L347.49 271.824C347.61 272.086 359.471 298.176 356.704 315.725L365.501 356.192L394.185 404.22C394.416 404.607 394.562 405.038 394.614 405.485C394.666 405.933 394.621 406.386 394.485 406.815C394.348 407.244 394.121 407.639 393.82 407.974C393.519 408.309 393.15 408.576 392.738 408.757L380.273 414.241C379.569 414.547 378.779 414.59 378.047 414.361C377.315 414.132 376.689 413.647 376.285 412.995L345.083 362.116L327.458 323.091C327.363 322.879 327.2 322.705 326.995 322.594C326.79 322.484 326.555 322.445 326.326 322.481C326.096 322.518 325.885 322.63 325.725 322.798C325.565 322.967 325.465 323.184 325.44 323.415L315.671 415.246C315.589 416.027 315.221 416.749 314.638 417.274C314.054 417.799 313.297 418.088 312.512 418.087H302.822C302.027 418.082 301.262 417.782 300.676 417.244C300.091 416.706 299.727 415.969 299.656 415.177Z" fill="#01161E"/>
<path d="M311.722 258.172L311.552 258.091L311.526 257.904C310.193 248.579 311.77 238.219 316.212 227.11C318.402 221.673 322.472 217.204 327.681 214.516C332.89 211.829 338.89 211.102 344.59 212.468C347.873 213.277 350.953 214.759 353.633 216.82C356.314 218.882 358.537 221.477 360.162 224.442C361.767 227.377 362.744 230.613 363.032 233.946C363.32 237.278 362.914 240.634 361.837 243.801C356.237 260.177 348.972 275.5 348.899 275.653L348.747 275.972L311.722 258.172Z" fill="#AEC3B0"/>
<path d="M272.809 234.946C273.668 234.268 274.66 233.779 275.721 233.512C276.782 233.244 277.887 233.203 278.965 233.393C280.043 233.582 281.068 233.997 281.974 234.61C282.881 235.223 283.647 236.021 284.223 236.951C284.404 237.246 284.565 237.554 284.703 237.871L318.553 244.713L327.566 223.534C327.91 222.725 328.411 221.992 329.04 221.377C329.669 220.763 330.414 220.279 331.231 219.954C332.049 219.629 332.922 219.469 333.801 219.484C334.681 219.498 335.548 219.687 336.354 220.038C337.161 220.39 337.889 220.898 338.498 221.533C339.106 222.168 339.583 222.917 339.901 223.737C340.218 224.557 340.37 225.432 340.348 226.311C340.325 227.19 340.129 228.056 339.77 228.859L326.563 258.386L326.526 258.449C325.76 259.496 324.677 260.268 323.437 260.651C322.198 261.033 320.868 261.006 319.645 260.573L282.337 247.204C282.137 247.36 281.928 247.506 281.713 247.641C280.782 248.217 279.741 248.59 278.657 248.736C277.572 248.881 276.469 248.796 275.42 248.486C274.371 248.176 273.399 247.647 272.568 246.935C271.737 246.223 271.066 245.343 270.599 244.354C270.504 244.154 270.418 243.952 270.342 243.748C269.773 242.208 269.706 240.528 270.149 238.947C270.592 237.367 271.523 235.966 272.809 234.946Z" fill="#A0616A"/>
<path d="M404.704 207.156C403.034 204.197 400.601 201.487 397.384 200.393C393.23 198.981 388.732 200.485 384.462 201.489C381.171 202.263 377.733 202.736 374.417 202.083C371.1 201.43 367.901 199.5 366.392 196.476C364.172 192.026 366.042 186.72 365.907 181.749C365.838 179.044 365.155 176.389 363.91 173.985C362.666 171.581 360.892 169.492 358.722 167.873C356.552 166.255 354.043 165.15 351.385 164.643C348.726 164.135 345.986 164.237 343.373 164.942C339.284 163.762 335.581 163.653 333.051 166.797C329.869 166.797 326.816 168.061 324.566 170.311C322.316 172.562 321.051 175.614 321.051 178.796H332.526C331.982 181.722 332.603 184.745 334.258 187.218C336.284 190.194 339.806 192.347 340.484 195.882C341.141 199.308 338.812 202.559 336.369 205.049C333.926 207.539 331.092 210.007 330.33 213.411C329.862 215.995 330.393 218.66 331.815 220.868C333.234 223.05 334.994 224.989 337.028 226.611C346.194 234.464 357.088 240.037 368.82 242.875C377.081 244.864 386.118 245.379 393.787 241.72C396.855 240.257 399.59 238.178 401.82 235.612C404.051 233.047 405.73 230.051 406.754 226.81C407.778 223.568 408.124 220.151 407.771 216.77C407.419 213.389 406.374 210.116 404.704 207.156Z" fill="#01161E"/>
<path d="M407.294 439H273.177C272.989 439 272.81 438.926 272.677 438.793C272.545 438.661 272.471 438.481 272.471 438.294C272.471 438.107 272.545 437.927 272.677 437.795C272.81 437.663 272.989 437.588 273.177 437.588H407.294C407.481 437.588 407.661 437.663 407.793 437.795C407.925 437.927 408 438.107 408 438.294C408 438.481 407.925 438.661 407.793 438.793C407.661 438.926 407.481 439 407.294 439Z" fill="#CCCCCC"/>
</g>
<defs>
<clipPath id="clip0_9276_2256">
<rect width="408" height="439" fill="white"/>
</clipPath>
</defs>
</svg>
