<svg width="565" height="450" viewBox="0 0 565 450" fill="none" xmlns="http://www.w3.org/2000/svg">
<g clip-path="url(#clip0_9279_2760)">
<path d="M496.138 436.616L484.396 436.615L478.811 391.325L496.14 391.326L496.138 436.616Z" fill="#FFB6B6"/>
<path d="M496.551 448.865L460.444 448.863V448.407C460.444 440.645 466.736 434.354 474.498 434.353L481.094 429.35L493.4 434.354L496.552 434.354L496.551 448.865Z" fill="#2F2E41"/>
<path d="M444.083 436.616L432.341 436.615L426.756 391.325L444.085 391.326L444.083 436.616Z" fill="#FFB6B6"/>
<path d="M444.496 448.865L408.389 448.863V448.407C408.39 440.645 414.682 434.354 422.443 434.353L429.039 429.35L441.345 434.354L444.497 434.354L444.496 448.865Z" fill="#2F2E41"/>
<path d="M438.488 183.864L506.231 185.29C506.231 185.29 518.409 205.257 509.111 233.423L510.153 241.267L505.874 253.389L503.735 290.47L505.874 296.174L504.448 306.87C504.448 306.87 510.153 377.465 495.891 413.119L478.777 412.406L472.359 319.383L475.925 312.575L475.212 309.723L466.655 266.938L458.098 289.043V301.326L450.254 310.436C450.254 310.436 453.106 394.579 445.262 411.693H426.102L418.878 297.6L426.009 231.284L424.583 227.006L426.722 224.866L425.296 217.736L438.488 183.864Z" fill="#2F2E41"/>
<path d="M467.368 53.7279L488.047 48.7363L493.752 62.2848C493.752 62.2848 523.266 77.9726 524.693 99.365C524.693 99.365 528.693 116.479 525.127 124.323C521.562 132.167 506.587 157.124 506.587 157.124C506.587 157.124 520.136 200.622 516.57 202.761C513.005 204.901 428.148 200.622 428.148 196.344C428.148 192.065 442.271 147.141 442.271 147.141L445.262 70.1287L464.515 62.9979L467.368 53.7279Z" fill="#124559"/>
<path d="M522.497 229.262C518.169 227.081 516.428 221.805 518.609 217.476C518.829 217.041 519.087 216.639 519.365 216.257L507.858 137.364L523.789 137.874L532.122 214.743C535.143 217.304 536.144 221.681 534.283 225.374C532.102 229.702 526.826 231.443 522.497 229.262Z" fill="#FFB6B6"/>
<path d="M371.339 192.028C369.596 187.505 371.85 182.426 376.372 180.684C376.827 180.508 377.289 180.384 377.751 180.288L422.203 114.103L433.665 125.178L388.221 187.732C388.739 191.659 386.542 195.575 382.683 197.061C378.16 198.804 373.081 196.55 371.339 192.028Z" fill="#FFB6B6"/>
<path d="M493.469 117.466C488.968 102.003 496.443 86.2258 512.548 86.302C517.203 86.3241 520.82 87.6748 521.822 91.4138C525.33 104.5 527.243 124.254 527.243 124.254L531.405 145.287L528.884 149.654L534.139 163.748L531.59 170.416L531.039 204.468L518.203 203.755L504.061 177.796L498.653 174.58C498.653 174.58 502.995 132.608 494.358 120.524L493.469 117.466Z" fill="#124559"/>
<path d="M435.975 79.41C443.481 65.1604 462.696 61.7851 474.227 73.0285C477.56 76.2782 479.222 79.7623 477.346 83.148C470.778 94.9979 455.553 107.757 455.553 107.757L436.804 137.898L431.957 139.288L425.945 153.077L413.061 168.224L395.997 177.224L386.014 167.24L388.134 154.408L413.824 120.177C413.824 120.177 432.308 96.9201 434.491 82.2275L435.975 79.41Z" fill="#124559"/>
<path d="M471.297 49.56C471.769 49.6168 472.24 49.6594 472.708 49.6808C474.166 49.7607 475.605 49.6776 476.993 49.4423C481.209 48.7666 485.039 46.7697 487.995 43.8413C491.119 40.7513 493.258 36.627 493.836 31.9317C495.19 20.8489 487.298 10.7533 476.215 9.39911C465.292 8.0565 455.334 15.6968 453.744 26.5252C453.719 26.6928 453.694 26.8534 453.676 27.0203C452.322 38.1102 460.206 48.1995 471.297 49.56Z" fill="#FFB6B6"/>
<path d="M449.187 25.7833C452.058 27.203 456.749 22.7396 458.546 25.3076C458.837 24.7527 459.16 24.216 459.478 23.7084C459.766 23.2543 460.179 22.2848 460.656 22.1187C460.052 23.575 460.185 25.5473 460.811 27.237C463.643 28.2952 467.35 25.9529 469.971 23.1824C474.087 18.8383 480.807 29.9779 479.218 35.7429C481.241 33.2734 485.629 34.6662 487.116 37.4898C488.602 40.3063 486.091 42.563 485.554 45.7047L489.608 45.1899C492.166 42.6987 491.987 38.5008 494.093 35.6135C497.612 30.7814 498.975 25.8511 496.33 20.8642C493.984 16.4548 493.765 10.748 489.461 8.20582C491.341 7.2864 484.654 8.72276 486.44 5.72646C488.234 2.73645 478.671 2.37354 478.047 3.97542C475.314 0.704839 472.558 -1.45152 469.196 1.16915C465.895 3.74747 466.236 6.45758 462.359 6.21471C460.54 6.10198 460.739 9.49433 459.658 10.9733C458.582 12.4444 454.402 13.3888 454.199 13.2314C453.095 12.3676 449.339 19.7211 449.339 19.7211C449.339 19.7211 446.293 24.3446 449.187 25.7833Z" fill="#2F2E41"/>
<path d="M196.155 154.131C264.086 154.131 319.155 209.2 319.155 277.131C319.155 345.062 264.086 400.131 196.155 400.131C128.224 400.131 34.2104 332.78 73.1553 277.131C112.1 221.482 128.224 154.131 196.155 154.131Z" fill="#F2F2F2"/>
<path d="M360.782 159.981C359.679 159.981 358.782 160.878 358.782 161.981V225.981C358.782 227.084 359.679 227.981 360.782 227.981C361.885 227.981 362.782 227.084 362.782 225.981V161.981C362.782 160.878 361.885 159.981 360.782 159.981Z" fill="#124559"/>
<path d="M24.7817 111.981C23.6787 111.981 22.7817 112.878 22.7817 113.981V129.981C22.7817 131.084 23.6787 131.981 24.7817 131.981C25.8848 131.981 26.7817 131.084 26.7817 129.981V113.981C26.7817 112.878 25.8848 111.981 24.7817 111.981Z" fill="#124559"/>
<path d="M24.7817 159.981C23.6787 159.981 22.7817 160.878 22.7817 161.981V192.981C22.7817 194.084 23.6787 194.981 24.7817 194.981C25.8848 194.981 26.7817 194.084 26.7817 192.981V161.981C26.7817 160.878 25.8848 159.981 24.7817 159.981Z" fill="#124559"/>
<path d="M24.7817 203.981C23.6787 203.981 22.7817 204.878 22.7817 205.981V236.981C22.7817 238.084 23.6787 238.981 24.7817 238.981C25.8848 238.981 26.7817 238.084 26.7817 236.981V205.981C26.7817 204.878 25.8848 203.981 24.7817 203.981Z" fill="#124559"/>
<path d="M204.155 48.9814C203.052 48.9814 202.155 49.8784 202.155 50.9814V81.9814C202.155 83.0845 203.052 83.9814 204.155 83.9814C205.258 83.9814 206.155 83.0845 206.155 81.9814V50.9814C206.155 49.8784 205.258 48.9814 204.155 48.9814Z" fill="#124559"/>
<path d="M510.551 432.608C512.617 432.737 513.759 430.17 512.196 428.674L512.041 428.056C512.061 428.007 512.082 427.957 512.102 427.908C514.192 422.926 521.272 422.96 523.344 427.949C525.182 432.378 527.523 436.813 528.1 441.495C528.358 443.562 528.242 445.668 527.783 447.696C532.091 438.285 534.358 428.009 534.358 417.675C534.358 415.079 534.216 412.482 533.925 409.892C533.686 407.774 533.357 405.668 532.931 403.582C530.625 392.305 525.632 381.564 518.431 372.592C514.969 370.7 512.082 367.741 510.338 364.196C509.711 362.917 509.22 361.541 508.988 360.139C509.382 360.191 510.473 354.191 510.176 353.823C510.725 352.989 511.708 352.575 512.308 351.762C515.29 347.719 519.399 348.425 521.544 353.92C526.126 356.232 526.17 360.068 523.359 363.756C521.57 366.103 521.324 369.279 519.755 371.791C519.916 371.998 520.084 372.198 520.246 372.405C523.207 376.203 525.768 380.285 527.927 384.573C527.317 379.807 528.217 374.065 529.753 370.364C531.501 366.147 534.778 362.595 537.664 358.949C541.13 354.57 548.237 356.481 548.848 362.032C548.854 362.086 548.859 362.14 548.865 362.193C548.436 362.435 548.016 362.692 547.606 362.963C545.267 364.511 546.075 368.137 548.847 368.565L548.91 368.575C548.755 370.118 548.49 371.649 548.103 373.154C551.805 387.47 543.813 392.684 532.401 392.918C532.149 393.047 531.904 393.177 531.652 393.299C532.808 396.555 533.732 399.894 534.416 403.278C535.03 406.269 535.456 409.291 535.695 412.327C535.992 416.157 535.967 420.007 535.644 423.83L535.663 423.695C536.483 419.484 538.77 415.55 542.09 412.824C547.035 408.762 554.022 407.266 559.358 404C561.926 402.428 565.217 404.46 564.769 407.437L564.747 407.58C563.953 407.903 563.178 408.277 562.429 408.697C562 408.939 561.58 409.196 561.17 409.467C558.83 411.014 559.639 414.641 562.411 415.069L562.474 415.079C562.519 415.085 562.558 415.091 562.603 415.098C561.24 418.334 559.341 421.337 556.964 423.927C554.65 436.424 544.708 437.61 534.074 433.971H534.068C532.905 439.035 531.206 443.982 529.023 448.697H511.003C510.938 448.497 510.88 448.29 510.822 448.09C512.489 448.193 514.168 448.096 515.808 447.793C514.471 446.152 513.134 444.499 511.797 442.858C511.765 442.826 511.739 442.794 511.714 442.761C511.035 441.922 510.351 441.088 509.673 440.249L509.672 440.248C509.63 437.67 509.939 435.101 510.551 432.608Z" fill="#F2F2F2"/>
<path d="M0 448.751C0 449.411 0.53003 449.941 1.19006 449.941H563.48C564.14 449.941 564.67 449.411 564.67 448.751C564.67 448.091 564.14 447.561 563.48 447.561H1.19006C0.53003 447.561 0 448.091 0 448.751Z" fill="#CCCCCC"/>
<path d="M142.376 268.84H73.1553V266.84H142.376C148.389 266.84 153.281 261.947 153.281 255.934V209.131H155.281V255.934C155.281 263.05 149.492 268.84 142.376 268.84Z" fill="#AEC3B0"/>
<path d="M274.455 370.295H117.019V372.295H274.455V370.295Z" fill="#AEC3B0"/>
<path d="M374.343 255.466H290.251C285.713 255.466 282.021 251.774 282.021 247.236V164.17C282.021 159.632 285.713 155.94 290.251 155.94H374.343C378.881 155.94 382.573 159.632 382.573 164.17V247.236C382.573 251.774 378.881 255.466 374.343 255.466Z" fill="#E6E6E6"/>
<path d="M305.912 158.393C294.072 158.393 284.473 167.991 284.473 179.831V245.474C284.473 249.638 287.849 253.014 292.014 253.014H343.434C363.695 253.014 380.121 236.589 380.121 216.327V165.933C380.121 161.768 376.745 158.393 372.581 158.393L305.912 158.393Z" fill="white"/>
<path d="M354.819 182.531H309.599C308.736 182.531 308.034 181.829 308.034 180.967C308.034 180.104 308.736 179.402 309.599 179.402H354.819C355.682 179.402 356.384 180.104 356.384 180.967C356.384 181.829 355.682 182.531 354.819 182.531Z" fill="#E6E6E6"/>
<path d="M354.819 215.895H309.599C308.736 215.895 308.034 215.193 308.034 214.33C308.034 213.467 308.736 212.766 309.599 212.766H354.819C355.682 212.766 356.384 213.467 356.384 214.33C356.384 215.193 355.682 215.895 354.819 215.895Z" fill="#E6E6E6"/>
<path d="M373.182 199.224H291.236C290.373 199.224 289.671 198.522 289.671 197.659C289.671 196.796 290.373 196.095 291.236 196.095H373.182C374.045 196.095 374.747 196.796 374.747 197.659C374.747 198.522 374.045 199.224 373.182 199.224Z" fill="#E6E6E6"/>
<path d="M374.019 229.461H344.416C343.553 229.461 342.851 228.759 342.851 227.896C342.851 227.034 343.553 226.332 344.416 226.332H374.019C374.882 226.332 375.584 227.034 375.584 227.896C375.584 228.759 374.882 229.461 374.019 229.461Z" fill="#E6E6E6"/>
<path d="M197.711 420.971H130.937C127.333 420.971 124.402 418.039 124.402 414.436V348.476C124.402 344.872 127.333 341.94 130.937 341.94H197.711C201.315 341.94 204.246 344.872 204.246 348.476V414.436C204.246 418.039 201.315 420.971 197.711 420.971Z" fill="#E6E6E6"/>
<path d="M143.372 343.888C133.97 343.888 126.349 351.509 126.349 360.911V413.036C126.349 416.343 129.029 419.024 132.336 419.024H173.167C189.256 419.024 202.299 405.981 202.299 389.892V349.875C202.299 346.568 199.619 343.888 196.312 343.888L143.372 343.888Z" fill="white"/>
<path d="M182.208 363.056H146.3C145.615 363.056 145.057 362.499 145.057 361.814C145.057 361.128 145.615 360.571 146.3 360.571H182.208C182.893 360.571 183.45 361.128 183.45 361.814C183.45 362.499 182.893 363.056 182.208 363.056Z" fill="#E6E6E6"/>
<path d="M182.208 389.549H146.3C145.615 389.549 145.057 388.992 145.057 388.307C145.057 387.622 145.615 387.064 146.3 387.064H182.208C182.893 387.064 183.45 387.622 183.45 388.307C183.45 388.992 182.893 389.549 182.208 389.549Z" fill="#E6E6E6"/>
<path d="M196.79 376.311H131.718C131.033 376.311 130.476 375.753 130.476 375.068C130.476 374.383 131.033 373.826 131.718 373.826H196.79C197.475 373.826 198.032 374.383 198.032 375.068C198.032 375.753 197.475 376.311 196.79 376.311Z" fill="#E6E6E6"/>
<path d="M197.454 400.321H173.947C173.262 400.321 172.704 399.763 172.704 399.078C172.704 398.393 173.262 397.836 173.947 397.836H197.454C198.139 397.836 198.696 398.393 198.696 399.078C198.696 399.763 198.139 400.321 197.454 400.321Z" fill="#E6E6E6"/>
<path d="M151.04 208.626H101.657C98.9923 208.626 96.8242 206.458 96.8242 203.793V155.013C96.8242 152.348 98.9923 150.18 101.657 150.18H151.04C153.705 150.18 155.873 152.348 155.873 155.013V203.793C155.873 206.458 153.705 208.626 151.04 208.626Z" fill="#E6E6E6"/>
<path d="M110.854 151.619C103.901 151.619 98.2642 157.256 98.2642 164.209V202.758C98.2642 205.203 100.247 207.186 102.692 207.186H132.888C144.787 207.186 154.433 197.54 154.433 185.641V156.047C154.433 153.602 152.45 151.619 150.005 151.619L110.854 151.619Z" fill="white"/>
<path d="M139.575 165.796H113.019C112.512 165.796 112.1 165.383 112.1 164.877C112.1 164.37 112.512 163.958 113.019 163.958H139.575C140.081 163.958 140.493 164.37 140.493 164.877C140.493 165.383 140.081 165.796 139.575 165.796Z" fill="#E6E6E6"/>
<path d="M139.575 185.388H113.019C112.512 185.388 112.1 184.976 112.1 184.469C112.1 183.963 112.512 183.551 113.019 183.551H139.575C140.081 183.551 140.493 183.963 140.493 184.469C140.493 184.976 140.081 185.388 139.575 185.388Z" fill="#E6E6E6"/>
<path d="M150.358 175.598H102.235C101.729 175.598 101.316 175.186 101.316 174.679C101.316 174.173 101.729 173.761 102.235 173.761H150.358C150.865 173.761 151.277 174.173 151.277 174.679C151.277 175.186 150.865 175.598 150.358 175.598Z" fill="#E6E6E6"/>
<path d="M150.85 193.354H133.465C132.958 193.354 132.546 192.942 132.546 192.435C132.546 191.929 132.958 191.517 133.465 191.517H150.85C151.356 191.517 151.768 191.929 151.768 192.435C151.768 192.942 151.356 193.354 150.85 193.354Z" fill="#E6E6E6"/>
<path d="M295.155 270.131C300.678 270.131 305.155 265.654 305.155 260.131C305.155 254.608 300.678 250.131 295.155 250.131C289.632 250.131 285.155 254.608 285.155 260.131C285.155 265.654 289.632 270.131 295.155 270.131Z" fill="#AEC3B0"/>
<path d="M154.155 219.13C159.678 219.13 164.155 214.653 164.155 209.13C164.155 203.607 159.678 199.13 154.155 199.13C148.632 199.13 144.155 203.607 144.155 209.13C144.155 214.653 148.632 219.13 154.155 219.13Z" fill="#AEC3B0"/>
<path d="M202.155 356.131C207.678 356.131 212.155 351.654 212.155 346.131C212.155 340.608 207.678 336.131 202.155 336.131C196.632 336.131 192.155 340.608 192.155 346.131C192.155 351.654 196.632 356.131 202.155 356.131Z" fill="#AEC3B0"/>
<path d="M223.756 78.8526C230.64 78.8526 236.22 73.3901 236.22 66.6519C236.22 59.9136 230.64 54.4512 223.756 54.4512C216.873 54.4512 211.293 59.9136 211.293 66.6519C211.293 73.3901 216.873 78.8526 223.756 78.8526Z" fill="#F2F2F2"/>
<path d="M323.669 62.4777H256.584C254.283 62.4777 252.41 60.6052 252.41 58.3038C252.41 56.0024 254.283 54.1299 256.584 54.1299H323.669C325.97 54.1299 327.843 56.0024 327.843 58.3038C327.843 60.6052 325.97 62.4777 323.669 62.4777Z" fill="#F2F2F2"/>
<path d="M376.022 76.6047H256.584C254.283 76.6047 252.41 74.7322 252.41 72.4308C252.41 70.1293 254.283 68.2568 256.584 68.2568H376.022C378.324 68.2568 380.196 70.1293 380.196 72.4308C380.196 74.7322 378.324 76.6047 376.022 76.6047Z" fill="#F2F2F2"/>
<path d="M43.359 130.13C47.8138 130.13 51.4251 126.595 51.4251 122.234C51.4251 117.873 47.8138 114.338 43.359 114.338C38.9043 114.338 35.293 117.873 35.293 122.234C35.293 126.595 38.9043 130.13 43.359 130.13Z" fill="#F2F2F2"/>
<path d="M108.021 119.532H64.6049C63.1154 119.532 61.9036 118.321 61.9036 116.831C61.9036 115.342 63.1154 114.13 64.6049 114.13H108.021C109.511 114.13 110.723 115.342 110.723 116.831C110.723 118.321 109.511 119.532 108.021 119.532Z" fill="#F2F2F2"/>
<path d="M141.904 128.675H64.6049C63.1154 128.675 61.9036 127.463 61.9036 125.974C61.9036 124.484 63.1154 123.272 64.6049 123.272H141.904C143.393 123.272 144.605 124.484 144.605 125.974C144.605 127.463 143.393 128.675 141.904 128.675Z" fill="#F2F2F2"/>
<path d="M285.359 411.131C289.814 411.131 293.425 407.596 293.425 403.235C293.425 398.874 289.814 395.339 285.359 395.339C280.904 395.339 277.293 398.874 277.293 403.235C277.293 407.596 280.904 411.131 285.359 411.131Z" fill="#F2F2F2"/>
<path d="M350.021 400.533H306.605C305.115 400.533 303.903 399.322 303.903 397.832C303.903 396.343 305.115 395.131 306.605 395.131H350.021C351.51 395.131 352.722 396.343 352.722 397.832C352.722 399.322 351.51 400.533 350.021 400.533Z" fill="#F2F2F2"/>
<path d="M383.903 409.676H306.605C305.115 409.676 303.903 408.464 303.903 406.975C303.903 405.485 305.115 404.273 306.605 404.273H383.903C385.393 404.273 386.605 405.485 386.605 406.975C386.605 408.464 385.393 409.676 383.903 409.676Z" fill="#F2F2F2"/>
<path d="M188.405 155.971H186.405V250.971H188.405V155.971Z" fill="#E6E6E6"/>
<path d="M187.405 256.971C190.719 256.971 193.405 254.284 193.405 250.971C193.405 247.657 190.719 244.971 187.405 244.971C184.091 244.971 181.405 247.657 181.405 250.971C181.405 254.284 184.091 256.971 187.405 256.971Z" fill="#E6E6E6"/>
<path d="M278.405 325.971C281.719 325.971 284.405 323.284 284.405 319.971C284.405 316.657 281.719 313.971 278.405 313.971C275.091 313.971 272.405 316.657 272.405 319.971C272.405 323.284 275.091 325.971 278.405 325.971Z" fill="#E6E6E6"/>
<path d="M116.405 243.971C119.719 243.971 122.405 241.284 122.405 237.971C122.405 234.657 119.719 231.971 116.405 231.971C113.091 231.971 110.405 234.657 110.405 237.971C110.405 241.284 113.091 243.971 116.405 243.971Z" fill="#E6E6E6"/>
<path d="M114.188 237.979L81.375 238.973L81.4355 240.973L114.248 239.979L114.188 237.979Z" fill="#E6E6E6"/>
<path d="M327.216 342.94H277.46V319.971H279.46V340.94H327.216V342.94Z" fill="#E6E6E6"/>
<path d="M113.942 309.485C117.256 309.485 119.942 306.799 119.942 303.485C119.942 300.172 117.256 297.485 113.942 297.485C110.629 297.485 107.942 300.172 107.942 303.485C107.942 306.799 110.629 309.485 113.942 309.485Z" fill="#E6E6E6"/>
<path d="M162.161 326.455H112.405V303.485H114.405V324.455H162.161V326.455Z" fill="#E6E6E6"/>
<path d="M314.405 280.655H75.4226V282.655H314.405V280.655Z" fill="#E6E6E6"/>
</g>
<defs>
<clipPath id="clip0_9279_2760">
<rect width="564.81" height="449.941" fill="white"/>
</clipPath>
</defs>
</svg>
